# xmcd
#
# Track frame offsets: 
#        150
#        13652
#        34476
#        55903
#        81151
#        104242
#        123520
#        141648
#        160542
#        182682
#        199133
#        216754
#
# Disc length: 3168 seconds
#
# Revision: 0
# Processed by: cddbd v1.5.2PL0 Copyright (c) Steve Scherf et al.
# Submitted via: ExactAudioCopy v1.3
#
DISCID=b30c5e0c
DTITLE=Nick Schnebelen Band - Live At Knuckleheads, Vol. 1
DYEAR=2016
DGENRE=Blues Rock
TTITLE0=I'm Goin'
TTITLE1=Willie James
TTITLE2=Crazy
TTITLE3=Desperate Heart
TTITLE4=Break Of Day
TTITLE5=Bad Disposition
TTITLE6=Tailgate Swing
TTITLE7=Who Will Comfort Me
TTITLE8=Spoonful
TTITLE9=Sleep Walk
TTITLE10=Jolene
TTITLE11=New Orleans
EXTD=
EXTT0=
EXTT1=
EXTT2=
EXTT3=
EXTT4=
EXTT5=
EXTT6=
EXTT7=
EXTT8=
EXTT9=
EXTT10=
EXTT11=
PLAYORDER=
